<svg width="320" height="113" viewBox="0 0 320 113" fill="none" xmlns="http://www.w3.org/2000/svg">
<path d="M15.413 98.2116C14.5938 97.382 13.5954 96.7232 12.4946 96.2596C11.3939 95.796 10.2163 95.5764 9.01307 95.5764C7.80988 95.552 6.63228 95.796 5.53149 96.2352C4.4307 96.6988 3.4323 97.3576 2.61311 98.1872C1.76831 98.9925 1.10272 99.9441 0.667519 100.993C0.232322 102.067 0.0019232 103.189 0.0019232 104.312C-0.0236766 105.459 0.206722 106.581 0.667519 107.63C1.12832 108.679 1.79391 109.631 2.63871 110.436C3.45814 111.266 4.45114 111.923 5.55355 112.364C6.65595 112.806 7.84323 113.022 9.03867 112.998C10.2316 113.005 11.4134 112.781 12.5133 112.341C13.6131 111.9 14.6082 111.252 15.4386 110.436C16.309 109.655 16.9746 108.704 17.4354 107.655C17.8962 106.605 18.1266 105.483 18.1266 104.336C18.1266 103.189 17.8962 102.067 17.4354 101.018C16.949 99.9441 16.2834 98.9925 15.413 98.2116ZM122.548 78.3985C122.42 83.8642 122.702 89.3543 123.368 94.7956H123.06C122.344 93.4536 120.756 90.9647 118.324 87.3291L59.9568 0H42.2417V111.485H55.8608V30.8909C56.0144 25.7912 55.784 20.6915 55.2208 15.5919H55.7328C56.7056 18.0319 57.96 20.3743 59.4448 22.5704L119.4 111.485H136.168V0H122.548V78.3985ZM228.506 99.2365H180.378V60.6106H222.49V48.8496H180.378V11.8098H225.562V0H166.427V111.485H228.429L228.506 99.2365ZM238.925 0V11.8098H272.461V111.485H286.08V11.8098H320V0H238.925Z" fill="white"/>
</svg>
